<svg xmlns="http://www.w3.org/2000/svg" xmlns:xlink="http://www.w3.org/1999/xlink" width="146" height="62" viewBox="0 0 146 62"><defs><clipPath id="clip-path"><rect id="Ret&#xE2;ngulo_213" data-name="Ret&#xE2;ngulo 213" width="146" height="62" transform="translate(5627.911 -155.301)" fill="#fff" stroke="#707070" stroke-width="1"></rect></clipPath></defs><g id="Grupo_23" data-name="Grupo 23" transform="translate(-5793 186)"><g id="Grupo_de_m&#xE1;scara_1" data-name="Grupo de m&#xE1;scara 1" transform="translate(165.089 -30.699)" clip-path="url(#clip-path)"><g id="Grupo_19" data-name="Grupo 19" transform="translate(5633.759 -224.074)"><path id="Caminho_1" data-name="Caminho 1" d="M36.627,177.471a.386.386,0,0,0,.26-.412c.008-.483-.009-.968.03-1.449.057-.7.1-1.394.214-2.085.067-.409.075-.825.157-1.236.166-.836.278-1.682.447-2.517a34.919,34.919,0,0,1,1.159-4.237,31.7,31.7,0,0,1,1.684-4.135,40.616,40.616,0,0,1,1.971-3.643,32.443,32.443,0,0,1,2.108-3.012c.428-.527.84-1.066,1.259-1.6a1.892,1.892,0,0,1,.127-.151c.841-.865,1.6-1.808,2.493-2.621.6-.545,1.219-1.067,1.826-1.6a40.546,40.546,0,0,1,5.3-3.865c.8-.5,1.621-.959,2.441-1.422.572-.323,1.152-.634,1.74-.927,1.176-.585,2.38-1.112,3.588-1.629s2.442-.965,3.681-1.4c1.878-.663,3.785-1.223,5.71-1.737,1.9-.507,3.82-.928,5.75-1.306q1.479-.29,2.967-.519c.711-.11,1.419-.249,2.13-.357.475-.072.956-.1,1.432-.166.5-.064.994-.14,1.49-.212.065-.009.13-.023.195-.029.632-.053,1.265-.1,1.9-.16.608-.062,1.213-.147,1.819-.222l.065-.007c.72-.049,1.44-.1,2.16-.146.458-.028.914-.035,1.373-.1a16.372,16.372,0,0,1,1.643-.052c.239-.009.477-.048.716-.069.174-.015.349-.032.524-.034.79-.011,1.58-.015,2.37-.028a5.022,5.022,0,0,0,1.307-.088,1.5,1.5,0,0,1,.393-.013c1.712,0,3.424-.008,5.135,0a4.464,4.464,0,0,1,1.242.09,1.785,1.785,0,0,0,.459.013c.812.008,1.624.012,2.436.025a8.689,8.689,0,0,1,1.308.086,9.72,9.72,0,0,0,1.314.041,4.475,4.475,0,0,1,.848.078,5.189,5.189,0,0,0,.852.043,4.164,4.164,0,0,1,1.174.107.359.359,0,0,0,.13.012c.814-.041,1.612.147,2.423.163.325.006.649.081.975.112a3.445,3.445,0,0,1,.911.105.927.927,0,0,0,.261.026c.677.04,1.345.144,2.015.241.388.057.78.089,1.171.145,1.1.16,2.2.343,3.3.513,1.707.264,3.395.62,5.08.987,1.409.306,2.8.691,4.193,1.068,1.626.441,3.227.968,4.817,1.527,1.156.407,2.293.863,3.427,1.329,1.6.66,3.156,1.427,4.686,2.236,1.006.532,1.986,1.114,2.959,1.7a37.007,37.007,0,0,1,3.564,2.464q1.034.808,2.037,1.656c.943.793,1.783,1.689,2.66,2.548.705.691,1.327,1.456,1.963,2.21a32.583,32.583,0,0,1,2.556,3.5c.448.7.851,1.43,1.268,2.15.209.36.419.72.6,1.092a39.281,39.281,0,0,1,2.386,5.974,33.749,33.749,0,0,1,.946,3.818c.111.6.246,1.2.344,1.8.08.5.123,1,.178,1.5q.114,1.042.22,2.085c.017.174.019.351.019.526,0,1.471-.014,2.943.012,4.414a21.914,21.914,0,0,1-.157,2.491c-.108,1.128-.26,2.254-.467,3.373-.159.861-.346,1.713-.54,2.565-.044.192-.1.381-.149.571a2.949,2.949,0,0,1-1.884,2.044,4.477,4.477,0,0,1-1.286.215c-.174.017-.351,0-.526,0q-61.954,0-123.909.007a9.048,9.048,0,0,1-1.632-.141,2.541,2.541,0,0,1-1.858-1.332,4.02,4.02,0,0,1-.354-.846,23.45,23.45,0,0,1-.616-2.75c-.092-.648-.231-1.29-.334-1.937-.069-.431-.136-.866-.163-1.3a27.022,27.022,0,0,1-.164-2.885,1.08,1.08,0,0,0-.129-.635.793.793,0,0,0-.136-.134v-2.5Zm79.038-22.645h0a2.636,2.636,0,0,0-.29-1.42,3.608,3.608,0,0,0-1.208-1.525,4.541,4.541,0,0,0-1.75-.689,4.491,4.491,0,0,0-1.883.083,3.452,3.452,0,0,0-1.993,1.3,3.691,3.691,0,0,0,1.681,5.8,3.85,3.85,0,0,0,2.322.152,3.678,3.678,0,0,0,3.121-3.7Zm-31.229.1h0a4.323,4.323,0,0,0,0-.526,3.354,3.354,0,0,0-.128-.576,3.632,3.632,0,0,0-1.024-1.66,4.16,4.16,0,0,0-3.023-1.041,5.811,5.811,0,0,0-.646.1,3.551,3.551,0,0,0-2.842,2.258,2.849,2.849,0,0,0-.241.815,3.781,3.781,0,0,0,.666,2.738,3.646,3.646,0,0,0,1.746,1.332,4.438,4.438,0,0,0,2.9.048,3.5,3.5,0,0,0,1.842-1.3,3.545,3.545,0,0,0,.758-2.188Zm11.62,3.7h0a2.545,2.545,0,0,0,.328,0c.238-.032.476-.066.71-.117a3.727,3.727,0,0,0,2.306-1.516,4.4,4.4,0,0,0,.695-1.9,1.535,1.535,0,0,0-.011-.524,8.02,8.02,0,0,0-.227-.888,3.564,3.564,0,0,0-1.391-1.863,4.273,4.273,0,0,0-2.487-.7,5.569,5.569,0,0,0-.646.095,3.553,3.553,0,0,0-2.09,1,3.749,3.749,0,0,0-.967,1.544,3.015,3.015,0,0,0-.193,1.417,4.445,4.445,0,0,0,.555,1.6,3.554,3.554,0,0,0,1.12,1.183,4.332,4.332,0,0,0,2.3.67Zm-7.744-7.343h0v.013a5.541,5.541,0,0,0,1.047-.057,3.614,3.614,0,0,0,2.6-2.193,3.857,3.857,0,0,0,.276-1.6,3.394,3.394,0,0,0-1.481-2.789,4.185,4.185,0,0,0-3.8-.594,3.524,3.524,0,0,0-2.123,1.645,3.79,3.79,0,0,0-.55,1.867,3.305,3.305,0,0,0,.389,1.642,3.56,3.56,0,0,0,3.185,2.068c.153,0,.307,0,.46,0Zm31.082,0h0c.207,0,.339-.006.47,0a3.2,3.2,0,0,0,2.08-.67,3.659,3.659,0,0,0,1.4-4,3.507,3.507,0,0,0-2.023-2.361,4.341,4.341,0,0,0-3.438-.087,3.526,3.526,0,0,0-1.375.977,3.417,3.417,0,0,0-.894,3.267,3.727,3.727,0,0,0,2.493,2.731,3.808,3.808,0,0,0,1.286.14Zm3.984,3.572h0a3.315,3.315,0,0,0,1.148,2.723,4.085,4.085,0,0,0,3.144,1.04,3.3,3.3,0,0,0,.644-.112,3.764,3.764,0,0,0,2.807-2.5,3.4,3.4,0,0,0-.034-2.371,3.659,3.659,0,0,0-1.659-1.96,4.284,4.284,0,0,0-3.295-.4,3.6,3.6,0,0,0-2.755,3.577Zm-19.521-3.574h0v0c.241,0,.482.013.722,0a2.857,2.857,0,0,0,.576-.1,3.728,3.728,0,0,0,2.486-4.813,3.615,3.615,0,0,0-2.364-2.278,4.479,4.479,0,0,0-2.7-.017,3.7,3.7,0,0,0-2.646,3.579,3.819,3.819,0,0,0,.691,2.146,3.387,3.387,0,0,0,2.778,1.493C103.55,151.283,103.7,151.282,103.856,151.282Z" transform="translate(-36.627 -134.278)" fill="#e99856" fill-rule="evenodd"></path><path id="Caminho_2" data-name="Caminho 2" d="M100.181,741.859c-.05-.04-.1-.108-.15-.115a3.793,3.793,0,0,0-.46-.018c-1.317-.009-2.633-.014-3.95-.028a5.032,5.032,0,0,1-1.308-.091,1.854,1.854,0,0,0-.459-.016c-.68-.009-1.36-.013-2.04-.029-.217-.005-.434-.044-.651-.064-.174-.016-.349-.035-.523-.039-.483-.012-.97.024-1.447-.035-.764-.1-1.533-.056-2.292-.14-.59-.066-1.189-.026-1.764-.13-.759-.136-1.536-.013-2.284-.213a.7.7,0,0,0-.131-.01,19.878,19.878,0,0,1-2.091-.17c-.606-.109-1.221-.058-1.823-.2-.422-.1-.867-.059-1.3-.143-.534-.1-1.086-.111-1.629-.17-.3-.032-.606-.08-.908-.126q-1.133-.17-2.265-.343c-.367-.056-.733-.113-1.1-.167-1.685-.248-3.358-.562-5.028-.9-1.607-.324-3.206-.674-4.792-1.085-1.291-.335-2.58-.677-3.846-1.1-.85-.285-1.706-.555-2.546-.867-1-.374-2-.76-2.987-1.188-.964-.419-1.913-.875-2.849-1.354a31.172,31.172,0,0,1-3.922-2.391,23.546,23.546,0,0,1-3.7-3.242,16.037,16.037,0,0,1-2.51-3.521,16.854,16.854,0,0,1-1.212-2.837,17.309,17.309,0,0,1-.448-1.981,19.5,19.5,0,0,1-.1-4.07,9.572,9.572,0,0,1,.383-2.125,13.381,13.381,0,0,1,1.064-2.89,2.946,2.946,0,0,1,1.859-1.558,2.728,2.728,0,0,1,.512-.094c.24-.017.483-.007.724-.007q62.442,0,124.884,0a4.369,4.369,0,0,1,1.237.109,2.778,2.778,0,0,1,1.71,1.34,12.711,12.711,0,0,1,1.228,3.318,12.123,12.123,0,0,1,.4,3.313c-.007.2-.006.4,0,.593a12.5,12.5,0,0,1-.379,3.184,14.489,14.489,0,0,1-1.248,3.38,14.78,14.78,0,0,1-1.662,2.6c-.5.611-1,1.223-1.543,1.79a21.894,21.894,0,0,1-2.891,2.475,33.906,33.906,0,0,1-3.545,2.254,45.838,45.838,0,0,1-5.118,2.378c-1.2.485-2.421.9-3.649,1.3-1.706.553-3.436,1.02-5.176,1.454s-3.493.79-5.249,1.141c-.877.175-1.765.3-2.648.446-.71.119-1.419.247-2.13.358-.432.067-.867.107-1.3.166-.519.07-1.038.14-1.555.224-.367.06-.737.051-1.107.129-.511.107-1.041.117-1.563.174-.651.072-1.3.149-1.951.224-.043,0-.087.016-.13.019-.7.053-1.4.1-2.093.159-.391.032-.781.082-1.173.117a4.352,4.352,0,0,0-1.109.1.7.7,0,0,1-.2.02l-3.082.157a1.885,1.885,0,0,0-.457.031,2.982,2.982,0,0,1-.848.081c-.46.011-.927-.026-1.381.031-1.179.146-2.368.037-3.543.142-1.731.154-3.461.068-5.191.116-.175,0-.353-.007-.526.013-.076.009-.144.078-.216.121Z" transform="translate(-37.364 -565.972)" fill="#e99856" fill-rule="evenodd"></path><path id="Caminho_3" data-name="Caminho 3" d="M107.354,385.1q-31.336,0-62.672,0a4.118,4.118,0,0,1-1.3-.15,3.126,3.126,0,0,1-2.088-2.83,3.055,3.055,0,0,1,3.033-3.07H170a4.512,4.512,0,0,1,1.369.132,3.019,3.019,0,0,1,.024,5.776,2.7,2.7,0,0,1-.971.145c-.24-.014-.482,0-.724,0Z" transform="translate(-40.136 -318.329)" fill="#e99856" fill-rule="evenodd"></path><path id="Caminho_4" data-name="Caminho 4" d="M107.467,677.353H44.915c-.22,0-.439,0-.658,0a3,3,0,0,1-.789-5.875,6.952,6.952,0,0,1,1.168-.163,4.914,4.914,0,0,1,.526,0q62.322,0,124.644,0a7.905,7.905,0,0,1,1.179.075,2.872,2.872,0,0,1,2.376,1.929,3,3,0,0,1-1.971,3.928,3.261,3.261,0,0,1-.58.1c-.24.018-.483.008-.724.008Z" transform="translate(-40.173 -538.079)" fill="#e99856" fill-rule="evenodd"></path><path id="Caminho_5" data-name="Caminho 5" d="M85.325,427.881a1.167,1.167,0,0,1,.056.226c0,1.054.025,2.109-.005,3.162a2.5,2.5,0,0,1-1.33,2.2c-.094.054-.187.111-.279.169-.017.011-.027.033-.066.081,0,.164-.016.36-.016.556q0,11.462,0,22.925c0,.283.063.565.077.848a1.054,1.054,0,0,0,.477.824,3.332,3.332,0,0,1,.759.815,1.955,1.955,0,0,1,.375,1.106c.01,1.053,0,2.107-.01,3.161,0,.018-.019.037-.031.06-.118.132-.281.087-.428.087-1.185,0-2.37,0-3.555,0q-2.633,0-5.267,0a2.281,2.281,0,0,1-.6-.028.515.515,0,0,1-.105-.415c0-.856.013-1.713-.006-2.569a2.591,2.591,0,0,1,.873-1.984,2.147,2.147,0,0,1,.253-.21,1.1,1.1,0,0,0,.5-1.013c-.006-.109,0-.22,0-.329q0-6.522,0-13.043c0-.216-.014-.431-.022-.643-.174-.009-.213.1-.267.189-.748,1.189-1.5,2.374-2.24,3.568-.994,1.6-2,3.2-2.955,4.828a2.123,2.123,0,0,1-1.634,1.074,3.2,3.2,0,0,1-1.555-.163,1.57,1.57,0,0,1-.862-.771c-.338-.615-.681-1.228-1.039-1.832q-2.065-3.482-4.142-6.957c-.064-.107-.106-.25-.286-.24a.816.816,0,0,0-.056.182c-.04.615-.005,14.134.035,14.558a1.778,1.778,0,0,0,.5.6c.245.25.484.507.7.779a1.636,1.636,0,0,1,.366,1.038c.005,1.075,0,2.151,0,3.226a.284.284,0,0,1-.027.074c-.184.144-.412.08-.623.081q-3.917.006-7.834,0H53.7a2.327,2.327,0,0,1-.073-.392c-.006-.922.007-1.845-.007-2.767a2.2,2.2,0,0,1,.6-1.558c.176-.2.366-.379.56-.556a1.292,1.292,0,0,0,.463-1.046c-.007-.175,0-.352,0-.527q0-11.4,0-22.793c0-.261-.006-.522-.009-.791-.161-.084-.3-.149-.427-.223a2.355,2.355,0,0,1-1.308-2.067c-.028-1.1-.008-2.2,0-3.293a.533.533,0,0,1,.046-.16.515.515,0,0,1,.4-.086q3.127,0,6.254,0a2.312,2.312,0,0,1,.329.011.853.853,0,0,1,.648.4,3.409,3.409,0,0,1,.2.341c.978,2.16,2.076,4.26,3.2,6.345,1.408,2.606,2.849,5.194,4.275,7.79a1.151,1.151,0,0,0,.6.633.674.674,0,0,0,.517-.4c.318-.525.644-1.047.944-1.583,1.629-2.911,3.367-5.758,5.067-8.628.827-1.4,1.662-2.79,2.48-4.192a1.322,1.322,0,0,1,1.232-.724c1.8.006,3.6,0,5.4.005A2.327,2.327,0,0,1,85.325,427.881Z" transform="translate(-49.3 -355.017)" fill="#e99856" fill-rule="evenodd"></path><path id="Caminho_6" data-name="Caminho 6" d="M302.561,433.222l-.315-.191a2.073,2.073,0,0,1-1-1.613,18.871,18.871,0,0,1-.082-2.431c0-.263,0-.527.007-.79a1.677,1.677,0,0,1,.06-.279,3.074,3.074,0,0,1,.385-.049c2.391,0,4.783.016,7.174-.009a2.559,2.559,0,0,1,2.471,2.063c.6,3.232,1.376,6.425,2.069,9.636.466,2.163.912,4.33,1.375,6.493.358,1.671.728,3.339,1.092,5.009q.637,2.921,1.276,5.842c.028.128.078.253.1.382a1.964,1.964,0,0,0,.847,1.354,2.47,2.47,0,0,1,.978,1.654,1.9,1.9,0,0,1,.023.328q0,1.58,0,3.161a2.151,2.151,0,0,1-.031.254.972.972,0,0,1-.589.08q-3.028.006-6.055,0h-2.982a1.9,1.9,0,0,1-.069-.338q-.007-1.317,0-2.634a3.477,3.477,0,0,1,.57-1.863,3.578,3.578,0,0,1,.475-.538c.166-.172.344-.333.476-.459a2.473,2.473,0,0,0,.034-1.235c-.056-.411-.162-.816-.256-1.222a.673.673,0,0,0-.571-.563,4.685,4.685,0,0,0-.715-.083c-1.294-.008-2.589,0-3.883,0a3.313,3.313,0,0,0-.953.133,1.351,1.351,0,0,0-.293.741c-.082.34-.13.689-.217,1.027a2.651,2.651,0,0,0-.03,1.281,3.821,3.821,0,0,0,.331.353,3.1,3.1,0,0,1,1.059,2.263c.061,1.005.014,2.017.014,3-.127.171-.289.137-.438.138q-1.974,0-3.949,0-2.237,0-4.475,0c-.216,0-.431-.013-.674-.02a2.541,2.541,0,0,1-.05-.342c0-.988,0-1.976,0-2.964a2.605,2.605,0,0,1,.85-2c.032-.03.062-.062.095-.091.871-.753.78-.808.993-1.779.531-2.418,1.036-4.841,1.551-7.262q.828-3.888,1.659-7.776.726-3.373,1.467-6.742c.061-.278.136-.554.183-.834a2.7,2.7,0,0,0,.025-1.088Zm6.969,16.3h0a2.452,2.452,0,0,0-.047-.943c-.161-.883-.314-1.768-.467-2.652s-.3-1.77-.455-2.654q-.291-1.683-.584-3.365c-.148-.841-.3-1.682-.455-2.521-.022-.114-.013-.266-.162-.325-.129.041-.148.148-.167.259-.115.691-.225,1.383-.348,2.073-.187,1.056-.384,2.111-.574,3.167-.248,1.379-.49,2.76-.739,4.138-.14.776-.292,1.55-.43,2.326a.538.538,0,0,0,.107.535,3.643,3.643,0,0,0,.406.051A22.417,22.417,0,0,0,309.53,449.517Z" transform="translate(-231.457 -355.027)" fill="#e99856" fill-rule="evenodd"></path><path id="Caminho_7" data-name="Caminho 7" d="M201.172,427.9c.291-.009.528-.022.765-.022h14.085c.812,0,1.624.006,2.435,0a1.387,1.387,0,0,1,1.254.706,1.176,1.176,0,0,1,.167.421,5.006,5.006,0,0,1,.067.784q.009,2.5,0,5.005a1.325,1.325,0,0,1-.087.687,2.264,2.264,0,0,1-.347.052c-.79.005-1.581-.028-2.369.011a2.649,2.649,0,0,1-2.31-1.152,1.154,1.154,0,0,1-.112-.162,1.3,1.3,0,0,0-1.315-.685c-.833.023-1.667.006-2.5.006h-.986a.914.914,0,0,0-.582.936c.007,2.525,0,5.049,0,7.574,0,.066,0,.132,0,.2a.642.642,0,0,0,.622.644c.174.017.351.007.526.008h5.331a1.606,1.606,0,0,1,.709.1.654.654,0,0,1,.425.608c0,.044,0,.087,0,.131,0,1.229,0,2.459,0,3.688a.7.7,0,0,1-.348.7,2.152,2.152,0,0,1-.8.063c-1.8,0-3.6,0-5.4,0a2.986,2.986,0,0,0-.648.07.531.531,0,0,0-.421.524c-.01.131,0,.263,0,.395q0,4.116,0,8.232c0,.11,0,.22,0,.329a.761.761,0,0,0,.716.8,2.466,2.466,0,0,0,.329.009h3.291a2.5,2.5,0,0,0,.329-.009.721.721,0,0,0,.58-.381c.091-.175.171-.355.249-.536a2.317,2.317,0,0,1,2.305-1.532c.746,0,1.492,0,2.238,0,.152,0,.3.018.433.026.185.182.134.39.134.581q0,2.437,0,4.874c0,.263-.005.527,0,.79a2.97,2.97,0,0,1-.147,1.018,1.881,1.881,0,0,1-1.5.732c-.132,0-.263,0-.395,0h-16.68a2.173,2.173,0,0,1-.076-.388c-.005-.966,0-1.932,0-2.9a2.892,2.892,0,0,1,.142-.906,1.877,1.877,0,0,1,.8-1.087,1.548,1.548,0,0,0,.639-.682c.009-.218.032-.522.032-.827q0-4.742,0-9.484,0-6.52,0-13.04c0-.2,0-.4,0-.593a1.111,1.111,0,0,0-.58-1.035l-.057-.033a1.908,1.908,0,0,1-.963-1.624c-.012-.131-.013-.263-.013-.395q0-1.416,0-2.832C201.146,428.2,201.159,428.094,201.172,427.9Z" transform="translate(-160.331 -355.043)" fill="#e99856" fill-rule="evenodd"></path><path id="Caminho_8" data-name="Caminho 8" d="M507.063,455.839c.008.256.019.451.02.646q0,3.128,0,6.257c0,.132.005.264-.005.395a1.006,1.006,0,0,1-.959.988c-.152.015-.307.009-.46.009h-15.2c-.11,0-.22,0-.329,0a1.165,1.165,0,0,1-1.167-.964,2.4,2.4,0,0,1-.042-.523c0-1.405.007-2.81-.007-4.215a2.823,2.823,0,0,1,.289-1.266c.861-1.825,1.708-3.656,2.56-5.485q2.5-5.368,5-10.735c.464-.994.935-1.984,1.4-2.977q.656-1.4,1.306-2.8a4.255,4.255,0,0,0,.222-.548.424.424,0,0,0-.26-.538,1.424,1.424,0,0,0-.505-.114c-1.119-.01-2.238-.013-3.357,0a1.039,1.039,0,0,0-.947.422c-.12.58,0,1.2-.076,1.84a1.294,1.294,0,0,1-.3.073c-.7.007-1.4.021-2.106,0a3.529,3.529,0,0,1-.967-.163,2.317,2.317,0,0,1-1.615-1.975,3.158,3.158,0,0,1-.026-.525q0-2.239,0-4.479a3.426,3.426,0,0,1,.021-.46.859.859,0,0,1,.817-.8,4.365,4.365,0,0,1,.46-.009h14.152c.154,0,.308-.008.46.007a1.2,1.2,0,0,1,1.1,1.116c.011.131.006.263.006.395,0,1.361-.01,2.722.005,4.083a3.832,3.832,0,0,1-.326,1.6q-.722,1.659-1.452,3.315-1.979,4.484-3.962,8.967-1.371,3.1-2.75,6.193-.721,1.624-1.438,3.248a2.644,2.644,0,0,0-.171.427.813.813,0,0,0,.272.94c.514.061,1.083.02,1.65.026.592.007,1.185,0,1.777,0,.568,0,1.135,0,1.73-.007.052-.213.094-.4.143-.586a5.478,5.478,0,0,1,.167-.566,1.869,1.869,0,0,1,1.652-1.219,3.428,3.428,0,0,1,.394-.021q1.251-.007,2.5-.008A2.486,2.486,0,0,1,507.063,455.839Z" transform="translate(-376.707 -355.044)" fill="#e99856" fill-rule="evenodd"></path><path id="Caminho_9" data-name="Caminho 9" d="M392.671,434.031a1.072,1.072,0,0,0-.917-.463,3.481,3.481,0,0,0-.846.091,1.174,1.174,0,0,0-.759.579c-.133.227-.254.462-.4.681a1.313,1.313,0,0,1-.951.639,6.018,6.018,0,0,1-.648.094c-.856.011-1.712.006-2.568,0a1.924,1.924,0,0,1-.279-.046c-.014-.144-.038-.27-.038-.4q0-2.767,0-5.534a2.364,2.364,0,0,1,.124-.841,1.213,1.213,0,0,1,.587-.68,2.048,2.048,0,0,1,.94-.268l.329,0h17.776a3.37,3.37,0,0,1,.976.107.982.982,0,0,1,.772.8,4.522,4.522,0,0,1,.111.778c.01,1.911.005,3.821,0,5.732,0,.085-.017.17-.03.29a1.768,1.768,0,0,1-.311.058c-.856,0-1.712.011-2.568,0a1.916,1.916,0,0,1-1.656-.911c-.132-.2-.24-.418-.359-.628a.989.989,0,0,0-.852-.534c-.372-.018-.746-.016-1.119,0a.556.556,0,0,0-.5.373,1.5,1.5,0,0,0-.1.645q0,1.483-.008,2.965-.01,5.04-.018,10.079-.01,4.743-.021,9.486a2.334,2.334,0,0,0,.153,1.359c.069.063.239.232.425.382a2.593,2.593,0,0,1,1.043,2.167c-.013.878,0,1.757,0,2.635,0,.128-.014.256-.021.359-.179.164-.363.109-.531.109q-2.732.007-5.465,0-1.613,0-3.226,0c-.193,0-.385-.015-.532-.021a.373.373,0,0,1-.121-.346c0-.966.007-1.933,0-2.9a2.394,2.394,0,0,1,.839-1.791c.094-.091.211-.157.312-.242a1.18,1.18,0,0,0,.466-.973c0-.176,0-.351,0-.527q0-11.266,0-22.53C392.684,434.547,392.676,434.285,392.671,434.031Z" transform="translate(-298.774 -355.048)" fill="#e99856" fill-rule="evenodd"></path><path id="Caminho_10" data-name="Caminho 10" d="M343.679,611.324a5.317,5.317,0,0,1,1.477.011c.3.922.554,1.85.836,2.769s.536,1.833.881,2.73c.1-.921.067-1.832.073-2.741s0-1.8.006-2.711a.872.872,0,0,1,.261-.089,2.354,2.354,0,0,1,1.034.082.981.981,0,0,1,.044.2q0,4.216,0,8.432a1.064,1.064,0,0,1-.047.209,3.656,3.656,0,0,1-1.383.046c-.363-.878-.6-1.789-.907-2.678s-.576-1.789-.935-2.674c-.008.213-.022.426-.022.639,0,1.339,0,2.679,0,4.019a1.192,1.192,0,0,1-.081.668,3.263,3.263,0,0,1-1.241.018,1.792,1.792,0,0,1-.074-.314c-.011-.219,0-.439,0-.659q0-3.59,0-7.181A1.632,1.632,0,0,1,343.679,611.324Z" transform="translate(-267.436 -492.941)" fill="#e99856" fill-rule="evenodd"></path><path id="Caminho_11" data-name="Caminho 11" d="M53.708,620.216a1.83,1.83,0,0,1-.043-.248c-.047-1.189-.012-8.055.045-8.575a1.545,1.545,0,0,1,.348-.086c.525-.01,1.051-.009,1.576,0a3.208,3.208,0,0,1,1.089.21,1.856,1.856,0,0,1,1.14,1.108,2.817,2.817,0,0,1,.163,1.735,2.054,2.054,0,0,1-.547,1.028c-.06.058-.112.125-.174.2a.792.792,0,0,0,.119.169,2.3,2.3,0,0,1,.82,1.857,3.491,3.491,0,0,1-.093,1.041A2.079,2.079,0,0,1,56.2,620.3c-.764.039-1.532.006-2.3,0-.059,0-.117-.051-.192-.086Zm1.545-3.927h0a3.139,3.139,0,0,0-.062.907c-.007.284-.009.568,0,.852a2.2,2.2,0,0,0,.071.852c.209,0,.4.023.595.01a.809.809,0,0,0,.681-.443,1.8,1.8,0,0,0,.048-1.639.882.882,0,0,0-.768-.536c-.17-.018-.344,0-.567,0Zm-.025-1.355h0c.209.009.379.022.548.022a.748.748,0,0,0,.715-.484,1.479,1.479,0,0,0,.035-1.208.837.837,0,0,0-.624-.525,1.336,1.336,0,0,0-.627.009A8.153,8.153,0,0,0,55.228,614.933Z" transform="translate(-49.421 -492.96)" fill="#e99856" fill-rule="evenodd"></path><path id="Caminho_12" data-name="Caminho 12" d="M414.594,620.195c-.044-.43-.077-8.059-.037-8.646a.727.727,0,0,1,.053-.172c.051-.026.088-.062.128-.064a11.071,11.071,0,0,1,2.424.056,1.731,1.731,0,0,1,.255.061,2.066,2.066,0,0,1,1.487,1.892c.021.2.009.394.013.592a1.808,1.808,0,0,1-.615,1.465l-.175.158c.094.1.172.2.265.278a1.924,1.924,0,0,1,.575.94,3.429,3.429,0,0,1-.058,2.192,1.959,1.959,0,0,1-1.474,1.274,1.39,1.39,0,0,1-.323.058c-.788,0-1.576,0-2.364-.01-.039,0-.078-.036-.151-.072Zm1.425-1.324h0c.23.013.38.018.53.03a.937.937,0,0,0,.988-.786,2.092,2.092,0,0,0-.029-1.166.893.893,0,0,0-.738-.665,1.551,1.551,0,0,0-.735.031c-.046.845-.023,1.668-.016,2.557Zm.016-3.959h0l.521.026a.83.83,0,0,0,.884-.785,2.869,2.869,0,0,0,0-.719.818.818,0,0,0-.669-.718,1.535,1.535,0,0,0-.729.032A19.834,19.834,0,0,0,416.035,614.912Z" transform="translate(-320.787 -492.94)" fill="#e99856" fill-rule="evenodd"></path><path id="Caminho_13" data-name="Caminho 13" d="M143.445,611.389c.06-.029.118-.08.176-.081a14.315,14.315,0,0,1,2.362.043,1.713,1.713,0,0,1,1.65,1.583,8.354,8.354,0,0,1,.051,1.967,1.964,1.964,0,0,1-.472,1.205c-.071.082-.132.174-.218.289.266,1.261.644,2.515.943,3.824a3.265,3.265,0,0,1-1.458.013l-.808-3.245a1.486,1.486,0,0,0-.815-.05,3.085,3.085,0,0,0-.048.8c-.005.285,0,.57,0,.855,0,.263,0,.526,0,.79s-.005.523-.008.805a2.231,2.231,0,0,1-1.346.036,1.153,1.153,0,0,1-.047-.216q0-4.212,0-8.424a1.02,1.02,0,0,1,.039-.2Zm1.436,4.125h0a1.65,1.65,0,0,0,.822.021.709.709,0,0,0,.612-.735c.015-.479.006-.958,0-1.437a1.8,1.8,0,0,0-.077-.358c-.462-.339-.642-.367-1.354-.223A12.658,12.658,0,0,0,144.881,615.514Z" transform="translate(-116.915 -492.945)" fill="#e99856" fill-rule="evenodd"></path><path id="Caminho_14" data-name="Caminho 14" d="M273.471,611.4a.544.544,0,0,1,.18-.077,17.391,17.391,0,0,1,2.43.047,1.771,1.771,0,0,1,1.576,1.6,10.178,10.178,0,0,1,.026,2.034,1.9,1.9,0,0,1-.514,1.183,2.606,2.606,0,0,0-.165.211c.284,1.281.664,2.536.941,3.84a3.362,3.362,0,0,1-1.427.027c-.347-1.078-.513-2.185-.835-3.257a1.267,1.267,0,0,0-.727-.057.429.429,0,0,0-.13.4c0,.79,0,1.581,0,2.371,0,.17-.026.34-.043.538a2.68,2.68,0,0,1-1.305-.021,1.082,1.082,0,0,1-.047-.211q0-4.216,0-8.432a.927.927,0,0,1,.043-.194Zm2.862,3.651h0c0-.533.011-1.12,0-1.707a.55.55,0,0,0-.5-.589,1.779,1.779,0,0,0-.949.043,21.231,21.231,0,0,0-.022,2.625c0,.036.047.068.071.1C275.766,615.647,275.908,615.6,276.332,615.055Z" transform="translate(-214.681 -492.966)" fill="#e99856" fill-rule="evenodd"></path><path id="Caminho_15" data-name="Caminho 15" d="M542.936,611.329c.2-.013.331-.027.459-.028.483,0,.965-.009,1.448,0a5.527,5.527,0,0,1,.718.071,1.7,1.7,0,0,1,1.582,1.655,19.379,19.379,0,0,1,0,2.04,1.743,1.743,0,0,1-.379.968c-.078.105-.165.2-.268.329a4.091,4.091,0,0,0,.064.431c.267,1.063.541,2.124.811,3.185a1.807,1.807,0,0,1,.026.225.723.723,0,0,1-.226.09c-.371.009-.742,0-1.139,0a3.275,3.275,0,0,1-.173-.427c-.189-.766-.366-1.535-.551-2.3-.046-.191-.1-.378-.16-.58a1.643,1.643,0,0,0-.808-.052,2,2,0,0,0-.071.366c-.007.769,0,1.537-.005,2.306,0,.2-.013.391-.021.6a2.7,2.7,0,0,1-1.191.083.5.5,0,0,1-.135-.469q0-1.91,0-3.821,0-1.976,0-3.953c0-.217.011-.434.018-.722Zm1.386,1.4h0a4.081,4.081,0,0,0-.053.977c-.008.306-.01.612,0,.918a3.09,3.09,0,0,0,.054.923,2.616,2.616,0,0,0,.792.024.746.746,0,0,0,.712-.729,14.169,14.169,0,0,0,0-1.442.66.66,0,0,0-.67-.668C544.9,612.711,544.638,612.724,544.323,612.724Z" transform="translate(-417.315 -492.957)" fill="#e99856" fill-rule="evenodd"></path><path id="Caminho_16" data-name="Caminho 16" d="M189.158,612.9v5.372a.849.849,0,0,0,.734.556,2.335,2.335,0,0,0,.342-.117.678.678,0,0,0,.393-.636c0-.548,0-1.1,0-1.673l-.633-.124a2.757,2.757,0,0,1,0-1.328,12.2,12.2,0,0,1,2.012.005,1.887,1.887,0,0,1,.048.283c0,.966.006,1.932,0,2.9a2,2,0,0,1-.985,1.755,2.162,2.162,0,0,1-3.189-1.122,1.544,1.544,0,0,1-.081-.517c-.006-1.734,0-3.469-.005-5.2a2.087,2.087,0,0,1,2.038-2,2.115,2.115,0,0,1,2.075,1.325,1.789,1.789,0,0,1,.133.571c.02.393.006.788.006,1.208a1.507,1.507,0,0,1-.32.072,4.83,4.83,0,0,1-1.012-.035,2.248,2.248,0,0,1-.081-.367c-.018-.306-.018-.612-.025-.888a.77.77,0,0,0-1.456-.031Z" transform="translate(-150.296 -492.772)" fill="#e99856" fill-rule="evenodd"></path><path id="Caminho_17" data-name="Caminho 17" d="M102.05,611.319a5.642,5.642,0,0,1,1.3-.01,2.623,2.623,0,0,1,.048.341c0,2.215-.016,4.431.009,6.647a2.144,2.144,0,0,1-4.168.631,2.927,2.927,0,0,1-.1-.711c-.015-.438-.005-.878-.005-1.316q0-2.435,0-4.87c0-.217.01-.434.017-.669a2.608,2.608,0,0,1,1.215-.037.808.808,0,0,1,.106.6q.006,2.9,0,5.791v.65a.854.854,0,0,0,.629.614.674.674,0,0,0,.5-.115.642.642,0,0,0,.344-.529c.012-.2.017-.394.017-.591q0-2.863,0-5.725A1.5,1.5,0,0,1,102.05,611.319Z" transform="translate(-83.623 -492.939)" fill="#e99856" fill-rule="evenodd"></path><path id="Caminho_18" data-name="Caminho 18" d="M463.552,611.377a5.807,5.807,0,0,1,.022,1.264,2.048,2.048,0,0,1-.368.073c-.526.008-1.052,0-1.578,0-.149,0-.3.013-.437.02a7.776,7.776,0,0,0-.031,2.33c.543.116,1.117-.029,1.687.087a2.979,2.979,0,0,1,.019,1.33c-.575.106-1.146-.009-1.688.073a8.133,8.133,0,0,0-.005,2.332,3.642,3.642,0,0,0,.762.032c.263,0,.526,0,.789,0a3.42,3.42,0,0,1,.775.033,2.339,2.339,0,0,1,.008,1.31,1.029,1.029,0,0,1-.235.054q-1.677,0-3.353-.01a.619.619,0,0,1-.2-.085c-.012-.124-.033-.252-.035-.381-.055-3.115-.029-7.8.049-8.446a1.153,1.153,0,0,1,.293-.078q1.611-.009,3.223,0A1.8,1.8,0,0,1,463.552,611.377Z" transform="translate(-354.712 -492.972)" fill="#e99856" fill-rule="evenodd"></path><path id="Caminho_19" data-name="Caminho 19" d="M505.169,612.685a8.834,8.834,0,0,1-1.24.041c-.39.012-.783-.024-1.162.023a8.142,8.142,0,0,0-.021,2.337c.542.1,1.114-.031,1.7.078a4.1,4.1,0,0,1,.024,1.287,1.836,1.836,0,0,1-.364.082c-.438.01-.876,0-1.34,0a1.459,1.459,0,0,0-.08.32c-.007.657,0,1.313,0,2a2.587,2.587,0,0,0,.394.069c.526.007,1.053,0,1.58.005.148,0,.3.018.446.028a.928.928,0,0,1,.065.213,10.265,10.265,0,0,1-.011,1.068,1.39,1.39,0,0,1-.326.088q-1.612.009-3.225,0a1.414,1.414,0,0,1-.275-.061,3.09,3.09,0,0,1-.05-.39q0-4.017,0-8.034a3.68,3.68,0,0,1,.044-.418c.075-.043.112-.082.15-.083q1.677-.014,3.354-.019a1.384,1.384,0,0,1,.258.048c.143.209.075.434.085.646C505.176,612.217,505.169,612.414,505.169,612.685Z" transform="translate(-386.003 -492.98)" fill="#e99856" fill-rule="evenodd"></path><path id="Caminho_20" data-name="Caminho 20" d="M235.739,618.889a2.647,2.647,0,0,1,.006,1.3,28.269,28.269,0,0,1-3.406.062,1.7,1.7,0,0,1-.3-.074,1.105,1.105,0,0,1-.047-.214q0-4.214,0-8.428a1.1,1.1,0,0,1,.047-.213,1.756,1.756,0,0,1,.306-.073,27.571,27.571,0,0,1,3.406.063,2.652,2.652,0,0,1-.011,1.312c-.768.07-1.554-.022-2.344.052a2,2,0,0,0-.069.791c-.009.241-.005.483,0,.724a4.308,4.308,0,0,0,.032.8,3.173,3.173,0,0,0,.863.052c.282.009.565-.011.834.018a2.7,2.7,0,0,1,.054,1.345,1.772,1.772,0,0,1-.3.054c-.373.007-.746,0-1.119.006a2.6,2.6,0,0,0-.3.036,11.026,11.026,0,0,0-.026,2.252c.073.106.187.1.294.1.548,0,1.1,0,1.645,0A1.645,1.645,0,0,1,235.739,618.889Z" transform="translate(-183.522 -492.906)" fill="#e99856" fill-rule="evenodd"></path><path id="Caminho_21" data-name="Caminho 21" d="M369.4,607.754c-.181.009-.333.022-.486.021a1.9,1.9,0,0,1-.261-.036c-.169-.312-.072-.655-.147-.97a2.934,2.934,0,0,1-.072-.905,1.686,1.686,0,0,1,1.171-.028A6.753,6.753,0,0,1,369.4,607.754Z" transform="translate(-286.111 -488.786)" fill="#e99856" fill-rule="evenodd"></path></g></g></g></svg>